<?xml version="1.0" standalone="no"?><!DOCTYPE svg PUBLIC "-//W3C//DTD SVG 1.1//EN" "http://www.w3.org/Graphics/SVG/1.1/DTD/svg11.dtd"><svg t="1743755673676" class="icon" viewBox="0 0 1024 1024" version="1.1" xmlns="http://www.w3.org/2000/svg" p-id="7381" xmlns:xlink="http://www.w3.org/1999/xlink" width="200" height="200"><path d="M515.584 771.541333a310.442667 310.442667 0 0 1-163.328-45.696l125.952-56.405333L1024 403.328l-75.776-22.314667-37.888 16.213334-31.744-2.005334-35.84-73.130666-79.872 35.541333-86.528 67.029333-65.536 14.762667-39.936 41.642667-301.568 168.618666a263.253333 263.253333 0 0 1-51.2-155.434666c0-153.386667 133.12-277.845333 297.472-277.845334 7.168 0 13.824 0.512 20.992 1.024A221.952 221.952 0 0 0 491.52 213.333333c-173.056 0-313.344 143.232-313.344 320 0 53.333333 12.8 103.125333 35.328 147.285334L0 800l117.76 30.976 154.624-69.077333A308.821333 308.821333 0 0 0 491.52 853.333333c162.816 0 296.448-126.464 311.808-289.024-33.792 119.381333-150.016 207.232-287.744 207.232z" fill="#141414" p-id="7382"></path></svg>