<?xml version="1.0" standalone="no"?><!DOCTYPE svg PUBLIC "-//W3C//DTD SVG 1.1//EN" "http://www.w3.org/Graphics/SVG/1.1/DTD/svg11.dtd"><svg t="1753546946707" class="icon" viewBox="0 0 1024 1024" version="1.1" xmlns="http://www.w3.org/2000/svg" p-id="3366" data-darkreader-inline-fill="" xmlns:xlink="http://www.w3.org/1999/xlink" width="200" height="200"><path d="M186.86 493.94h-70.39c-10.79 0-19.42 8.63-19.42 19.42 0 10.79 8.63 19.42 19.42 19.42h70.39c10.79 0 19.42-8.63 19.42-19.42 0-10.79-8.63-19.42-19.42-19.42z m77.86-200.71c7.47 7.47 19.59 7.47 27.39 0 7.47-7.8 7.47-19.92 0-27.39l-45.98-45.98c-7.8-7.8-19.92-7.8-27.39 0-7.8 7.47-7.8 19.76 0 27.39-0.01 0 45.98 45.98 45.98 45.98z m5.64 434.62l-51.63 51.63c-7.8 7.47-7.8 19.59 0 27.39 7.47 7.47 19.76 7.47 27.39 0l51.63-51.63c7.47-7.8 7.47-19.92 0-27.39-7.47-7.81-19.92-7.81-27.39 0z m241.71-530.74c10.79 0 19.42-8.63 19.42-19.42v-60.1c0-10.79-8.63-19.42-19.42-19.42-10.79 0-19.42 8.63-19.42 19.42v60.26c0 10.63 8.63 19.26 19.42 19.26z m395.27 296.83h-61.76c-10.79 0-19.42 8.63-19.42 19.42 0 10.79 8.63 19.42 19.42 19.42h61.76c10.79 0 19.42-8.63 19.42-19.42 0-10.79-8.8-19.42-19.42-19.42zM512.07 817.49c-10.79 0-19.42 8.96-19.42 19.42v71.88c0 10.79 8.63 19.42 19.42 19.42 10.79 0 19.42-8.63 19.42-19.42v-71.88c0-10.46-8.63-19.42-19.42-19.42z m265.78-597.63l-41.67 41.5c-7.47 7.8-7.47 19.92 0 27.39 7.8 7.8 19.92 7.8 27.39 0l41.67-41.5c7.47-7.8 7.47-19.92 0-27.39-7.63-7.81-19.92-7.81-27.39 0z m-20.25 511.8c-7.47-7.47-19.76-7.47-27.39 0-7.47 7.8-7.47 19.92 0 27.39l47.64 47.64c7.47 7.47 19.76 7.47 27.39 0 7.47-7.8 7.47-19.92 0-27.39l-47.64-47.64zM516.22 256.21c-138.62 0-251.34 112.39-251.34 251.17 0 138.95 112.72 251.5 251.34 251.5s251.01-112.39 251.01-251.5c0-138.61-112.39-251.17-251.01-251.17z m0 459.02c-114.71 0-207.84-93.13-207.84-207.84 0-100.44 71.22-184.27 166.01-203.69-14.28 28.06-22.08 59.93-22.08 93.3 0 114.88 92.97 207.84 207.84 207.84 14.28 0 28.39-1.49 41.67-4.15-34.2 68.06-104.59 114.54-185.6 114.54z" p-id="3367"></path></svg>