<?xml version="1.0" standalone="no"?><!DOCTYPE svg PUBLIC "-//W3C//DTD SVG 1.1//EN" "http://www.w3.org/Graphics/SVG/1.1/DTD/svg11.dtd"><svg t="1743755688272" class="icon" viewBox="0 0 1024 1024" version="1.1" xmlns="http://www.w3.org/2000/svg" p-id="8412" xmlns:xlink="http://www.w3.org/1999/xlink" width="200" height="200"><path d="M945.578667 597.674667q-4.778667-21.077333-28.586667-13.909334h-55.850667q23.381333-54.229333 39.125334-80.682666 15.744-26.453333 7.637333-42.154667l-32.426667-123.264q-2.858667-18.346667-32.426666-11.178667h-84.906667l77.269333-115.626666q12.885333-16.170667 5.717334-25.130667L817.28 85.333333H177.365333L85.333333 313.941333l17.664 143.402667 78.165334-5.376-57.685334 127.317333 21.461334 137.6 87.253333-5.376-69.589333 115.626667L187.861333 981.333333l599.893334-75.306666L981.333333 765.312v-36.778667c0.469333 0.426667-31.018667-109.354667-35.754666-130.858666zM342.826667 787.2l-19.541334-123.733333 125.44-178.773334-159.317333 9.813334-17.152-113.834667 125.44-164.053333-155.008 0.896-17.152-100.394667H778.666667l19.541333 72.149333-308.992 465.28 131.626667-8.533333 106.794666-178.858667-85.802666 8.106667 79.616-112.085333 118.741333-3.584 31.445333 110.293333-86.272 162.688 126.336-11.221333 24.789334 105.344-593.664 60.501333z" fill="#141414" p-id="8413"></path><path d="M614.784 207.530667h-85.845333l-117.76 122.154666h87.722666l115.882667-122.154666z" fill="#141414" p-id="8414"></path></svg>